<?xml version="1.0" standalone="no"?>
<!DOCTYPE svg PUBLIC "-//W3C//DTD SVG 20010904//EN"
 "http://www.w3.org/TR/2001/REC-SVG-20010904/DTD/svg10.dtd">
<svg version="1.0" xmlns="http://www.w3.org/2000/svg"
 width="256.000000pt" height="256.000000pt" viewBox="0 0 256.000000 256.000000"
 preserveAspectRatio="xMidYMid meet">

<g transform="translate(0.000000,256.000000) scale(0.100000,-0.100000)"
fill="#000000" stroke="none">
<path d="M997 2126 l-187 -181 -3 -90 -2 -90 -91 -3 -92 -3 -167 -174 -167
-175 184 0 183 0 268 268 267 268 -2 181 -3 181 -188 -182z"/>
<path d="M1370 2132 l0 -182 187 0 188 0 -50 48 c-28 27 -112 108 -187 182
l-138 133 0 -181z"/>
<path d="M1660 1665 l95 -96 3 82 c2 45 1 88 -2 96 -4 9 -30 13 -98 13 l-93 0
95 -95z"/>
<path d="M1940 1557 l0 -187 192 0 193 0 -40 38 c-22 21 -109 105 -192 187
l-153 149 0 -187z"/>
<path d="M1018 1543 l-148 -147 0 -115 0 -114 142 -144 142 -143 126 0 126 0
142 143 142 144 0 113 0 114 -148 148 -148 148 -114 0 -113 0 -149 -147z m407
-123 l140 -140 -143 -143 -142 -142 -142 142 -143 143 140 140 c77 77 142 140
145 140 3 0 68 -63 145 -140z"/>
<path d="M1682 927 l-262 -262 0 -190 0 -190 195 195 195 195 0 87 0 88 88 0
87 0 170 170 170 170 -190 0 -190 0 -263 -263z"/>
<path d="M450 985 c102 -102 186 -185 187 -185 2 0 3 83 3 185 l0 185 -187 0
-188 0 185 -185z"/>
<path d="M800 902 c0 -68 4 -94 13 -98 8 -3 51 -4 96 -2 l82 3 -96 95 -95 95
0 -93z"/>
<path d="M950 475 c102 -102 186 -185 187 -185 2 0 3 83 3 185 l0 185 -187 0
-188 0 185 -185z"/>
</g>
</svg>
